<svg xmlns="http://www.w3.org/2000/svg" width="30.673" height="35.684" viewBox="0 0 30.673 35.684">
  <g id="_002-popcorn-1" data-name="002-popcorn-1" transform="translate(-8.777 -23.02)">
    <path id="Path_48" data-name="Path 48" d="M16.672,108.355l4.139,27.654H23.02l-3.029-27.654Zm0,0" transform="translate(-7.011 -77.902)" fill="#f53e28"/>
    <path id="Path_49" data-name="Path 49" d="M16.953,130.372H14.744a.722.722,0,0,1-.759-.526l-4.14-27.655a.514.514,0,0,1,.188-.464.874.874,0,0,1,.571-.2h3.319a.714.714,0,0,1,.761.544l3.029,27.655a.521.521,0,0,1-.2.453A.872.872,0,0,1,16.953,130.372Zm-1.529-1.189h.7l-2.9-26.465H11.463Zm0,0" transform="translate(-0.944 -71.668)" fill="#4c241d"/>
    <path id="Path_50" data-name="Path 50" d="M225.7,108.355h-3.319l-3.029,27.654h2.209Zm0,0" transform="translate(-187.012 -77.902)" fill="#f53e28"/>
    <path id="Path_51" data-name="Path 51" d="M215.5,130.372h-2.209a.873.873,0,0,1-.562-.193.519.519,0,0,1-.2-.453l3.029-27.655a.715.715,0,0,1,.761-.544h3.319a.872.872,0,0,1,.57.2.514.514,0,0,1,.188.464l-4.139,27.655A.722.722,0,0,1,215.5,130.372Zm-1.377-1.189h.7l3.961-26.465h-1.759Zm0,0" transform="translate(-180.948 -71.668)" fill="#4c241d"/>
    <path id="Path_52" data-name="Path 52" d="M64.9,108.355H46.332l3.029,27.654H65.692l3.029-27.654Zm0,0" transform="translate(-33.353 -77.902)" fill="#fff"/>
    <path id="Path_53" data-name="Path 53" d="M59.627,130.372H43.3a.714.714,0,0,1-.761-.544l-3.029-27.655a.521.521,0,0,1,.2-.453.875.875,0,0,1,.563-.193H62.656a.875.875,0,0,1,.563.193.521.521,0,0,1,.2.453l-3.029,27.655A.715.715,0,0,1,59.627,130.372ZM44,129.182H58.925l2.9-26.465H41.1Zm0,0" transform="translate(-27.288 -71.668)" fill="#4c241d"/>
    <path id="Path_56" data-name="Path 56" d="M43.172,35.367c-.014,0-.026,0-.039,0a2.215,2.215,0,0,0-1.373-1.56,1.347,1.347,0,0,0,1.092-1.2A1.5,1.5,0,0,0,41.2,31.324a1.966,1.966,0,0,0-.955.241,4.645,4.645,0,0,0-3.772-1.717A4.442,4.442,0,0,0,32.441,32a3.034,3.034,0,0,0-2.266-.927c-1.523,0-2.757.961-2.757,2.147a1.758,1.758,0,0,0,.291.943,2.918,2.918,0,0,0-.291-.023,2.5,2.5,0,0,0-2.079.982c-.014-.02-.028-.041-.042-.061a1.131,1.131,0,0,0,.545-.922,1.434,1.434,0,0,0-1.575-1.226,1.645,1.645,0,0,0-1.425.711,4.964,4.964,0,0,0-.938-.1,4.446,4.446,0,0,0-2.951,1.055,2.278,2.278,0,0,0-1.382-.442A1.793,1.793,0,0,0,15.6,35.674a1.793,1.793,0,0,0,1.969,1.533,2.49,2.49,0,0,0,.467-.048,3.8,3.8,0,0,0,3.866,2.5,3.847,3.847,0,0,0,3.834-2.387,2.662,2.662,0,0,0,1.68.306h13a3.289,3.289,0,0,0,1.6-.161,1.791,1.791,0,0,0,1.16.4,1.434,1.434,0,0,0,1.575-1.226A1.434,1.434,0,0,0,43.172,35.367Zm0,0" transform="translate(-6.061 -6.233)" fill="#ffec95"/>
    <path id="Path_57" data-name="Path 57" d="M15.843,34.022a4.771,4.771,0,0,1-4.435-2.455,2.465,2.465,0,0,1-2.631-2.127,2.491,2.491,0,0,1,2.733-2.128,3.338,3.338,0,0,1,1.309.26,5.519,5.519,0,0,1,3.024-.873,5.293,5.293,0,0,1,.582.033,2.655,2.655,0,0,1,1.781-.646,2.329,2.329,0,0,1,2.253,1.33c.057-.014.115-.026.172-.037a2.042,2.042,0,0,1-.038-.392c0-1.511,1.58-2.741,3.521-2.741a4.221,4.221,0,0,1,2.073.528,5.558,5.558,0,0,1,4.229-1.754,5.717,5.717,0,0,1,4.042,1.554,3.021,3.021,0,0,1,.685-.078,2.2,2.2,0,0,1,2.412,1.878,1.659,1.659,0,0,1-.6,1.232,2.635,2.635,0,0,1,.736.99,1.977,1.977,0,0,1,1.757,1.764,2.132,2.132,0,0,1-2.339,1.821,2.825,2.825,0,0,1-1.279-.3,4.407,4.407,0,0,1-1.134.067c-.112,0-.227-.008-.344-.008H21.2a5.811,5.811,0,0,1-1.084-.064A4.878,4.878,0,0,1,15.843,34.022Zm-3.866-3.691a.927.927,0,0,1,.414.095.611.611,0,0,1,.337.391,3.066,3.066,0,0,0,3.115,2.016,3.087,3.087,0,0,0,3.09-1.924.686.686,0,0,1,.535-.44.92.92,0,0,1,.753.154c.152.12.4.133.976.129H34.354c.139,0,.274,0,.408.009a1.678,1.678,0,0,0,.745-.059.927.927,0,0,1,1.008.083.917.917,0,0,0,.6.209.739.739,0,0,0,.812-.632.731.731,0,0,0-.78-.631c-.028,0-.05,0-.071,0a.728.728,0,0,1-.756-.51,1.592,1.592,0,0,0-.992-1.126.574.574,0,0,1-.386-.568.641.641,0,0,1,.5-.51.724.724,0,0,0,.587-.644.806.806,0,0,0-.885-.689,1.051,1.051,0,0,0-.511.13.942.942,0,0,1-.609.1.775.775,0,0,1-.5-.288,3.844,3.844,0,0,0-3.106-1.415,3.641,3.641,0,0,0-3.324,1.775.761.761,0,0,1-.622.375.861.861,0,0,1-.718-.252,2.2,2.2,0,0,0-1.638-.671,1.817,1.817,0,0,0-1.994,1.552,1.269,1.269,0,0,0,.213.68.487.487,0,0,1-.064.608.864.864,0,0,1-.718.245c-.113-.012-.153-.018-.195-.018a1.7,1.7,0,0,0-1.4.666.814.814,0,0,1-.669.315h-.006a.818.818,0,0,1-.669-.308.566.566,0,0,1,.124-.8.591.591,0,0,0,.284-.473.74.74,0,0,0-.812-.632.84.84,0,0,0-.733.367.845.845,0,0,1-.875.326,3.959,3.959,0,0,0-.756-.08,3.557,3.557,0,0,0-2.377.852.866.866,0,0,1-.546.2.9.9,0,0,1-.564-.17,1.392,1.392,0,0,0-.845-.271,1.1,1.1,0,0,0-1.205.939,1.1,1.1,0,0,0,1.206.939,1.508,1.508,0,0,0,.285-.031A1,1,0,0,1,11.977,30.331Zm0,0" fill="#4c241d"/>
    <path id="Path_61" data-name="Path 61" d="M197.219,49.888a.7.7,0,0,1-.764-.595,1.393,1.393,0,0,0-1.528-1.19.613.613,0,1,1,0-1.189c1.685,0,3.056,1.067,3.056,2.379A.7.7,0,0,1,197.219,49.888Zm0,0" transform="translate(-164.643 -21.813)" fill="#fff"/>
    <path id="Path_62" data-name="Path 62" d="M132.026,293.224a1.7,1.7,0,0,1-1.862-1.45.788.788,0,0,1,1.528,0,.345.345,0,0,0,.668,0,.788.788,0,0,1,1.528,0A1.7,1.7,0,0,1,132.026,293.224Zm0,0" transform="translate(-107.804 -244.799)" fill="#4c241d"/>
    <path id="Path_63" data-name="Path 63" d="M174.089,264.332a.7.7,0,0,1-.764-.595.788.788,0,0,0-1.528,0,.788.788,0,0,1-1.528,0,2.364,2.364,0,0,1,4.583,0A.7.7,0,0,1,174.089,264.332Zm0,0" transform="translate(-143.422 -218.118)" fill="#4c241d"/>
    <path id="Path_64" data-name="Path 64" d="M85.343,264.332a.7.7,0,0,1-.764-.595.788.788,0,0,0-1.528,0,.788.788,0,0,1-1.528,0,2.364,2.364,0,0,1,4.583,0A.7.7,0,0,1,85.343,264.332Zm0,0" transform="translate(-64.606 -218.118)" fill="#4c241d"/>
    <path id="Path_65" data-name="Path 65" d="M53.1,103.906a2.089,2.089,0,0,1-2.292-1.784.788.788,0,0,1,1.528,0,.7.7,0,0,0,.764.595.613.613,0,1,1,0,1.19Zm0,0" transform="translate(-37.325 -71.668)" fill="#fff"/>
    <path id="Path_71" data-name="Path 71" d="M180.153,304.1h-2.292a.613.613,0,1,1,0-1.189h2.292a.613.613,0,1,1,0,1.189Zm0,0" transform="translate(-149.486 -255.511)" fill="#e66353"/>
    <path id="Path_72" data-name="Path 72" d="M84.579,304.1H82.287a.613.613,0,1,1,0-1.189h2.292a.613.613,0,1,1,0,1.189Zm0,0" transform="translate(-64.606 -255.511)" fill="#e66353"/>
  </g>
</svg>
