<svg id="_002-cinema" data-name="002-cinema" xmlns="http://www.w3.org/2000/svg" width="23.304" height="21.022" viewBox="0 0 23.304 21.022">
  <path id="Path_110" data-name="Path 110" d="M425.468,374.768a3.562,3.562,0,0,1-3.726-3.361v-2.17a.384.384,0,0,1,.764,0v2.17a2.832,2.832,0,0,0,2.962,2.672.346.346,0,1,1,0,.689Z" transform="translate(-402.546 -353.746)" fill="#1b4145"/>
  <ellipse id="Ellipse_9" data-name="Ellipse 9" cx="10.125" cy="9.133" rx="10.125" ry="9.133" transform="translate(1.336 1.205)" fill="#8b7e7f"/>
  <ellipse id="Ellipse_10" data-name="Ellipse 10" cx="6.559" cy="5.917" rx="6.559" ry="5.917" transform="translate(4.902 4.422)" fill="#1b4145"/>
  <path id="Path_111" data-name="Path 111" d="M11.461,0C5.131,0,0,4.629,0,10.339S5.131,20.677,11.461,20.677s11.461-4.629,11.461-10.339S17.791,0,11.461,0ZM2.414,7.687A3.058,3.058,0,0,1,6.169,5.961,2.642,2.642,0,0,1,8.082,9.348a3.058,3.058,0,0,1-3.755,1.726A2.642,2.642,0,0,1,2.414,7.687Zm7.618,9a3.2,3.2,0,0,1-4.162.595,2.522,2.522,0,0,1-.659-3.755,3.2,3.2,0,0,1,4.162-.595A2.522,2.522,0,0,1,10.032,16.686ZM8.481,4.446a2.845,2.845,0,0,1,2.98-2.688,2.845,2.845,0,0,1,2.98,2.688,2.845,2.845,0,0,1-2.98,2.688A2.845,2.845,0,0,1,8.481,4.446Zm8.571,12.835a3.2,3.2,0,0,1-4.162-.595,2.522,2.522,0,0,1,.659-3.755,3.2,3.2,0,0,1,4.162.595A2.522,2.522,0,0,1,17.053,17.281ZM18.6,11.074A3.058,3.058,0,0,1,14.84,9.348a2.642,2.642,0,0,1,1.913-3.387,3.058,3.058,0,0,1,3.755,1.726A2.642,2.642,0,0,1,18.6,11.074Z" transform="translate(0)" fill="#c2b8b9"/>
  <ellipse id="Ellipse_11" data-name="Ellipse 11" cx="1.605" cy="1.447" rx="1.605" ry="1.447" transform="translate(9.857 8.891)" fill="#8b7e7f"/>
</svg>
