<svg xmlns="http://www.w3.org/2000/svg" width="418.232" height="256.034" viewBox="0 0 418.232 256.034">
  <g id="Group_29" data-name="Group 29" transform="translate(-565.54 -1991.289)">
    <g id="Group_27" data-name="Group 27" transform="translate(724.404 2100.196) rotate(20)">
      <path id="Path_75" data-name="Path 75" d="M193.728,43.236c-.1,0-.185.023-.277.026a17.027,17.027,0,0,0-9.582-12.507c4.479-1.466,7.717-5.266,7.747-9.747.037-5.713-5.127-10.311-11.534-10.27a12.605,12.605,0,0,0-6.73,1.982C168.173,4.5,158.293-1.018,146.9-.945c-12.949.083-24.029,7.362-28.515,17.54a19.836,19.836,0,0,0-15.9-7.371c-10.716.069-19.453,7.87-19.515,17.425a15.512,15.512,0,0,0,2,7.586,17.936,17.936,0,0,0-2.047-.173,17.164,17.164,0,0,0-14.68,8.009c-.1-.161-.192-.328-.3-.486a9.559,9.559,0,0,0,3.887-7.451c.036-5.458-4.9-9.852-11.021-9.813a11.381,11.381,0,0,0-10.065,5.791,30.544,30.544,0,0,0-6.6-.742A29.408,29.408,0,0,0,23.33,38a14.538,14.538,0,0,0-9.7-3.5C5.978,34.557-.262,40.129-.307,46.955S5.816,59.27,13.469,59.221a15.456,15.456,0,0,0,3.291-.408c2.327,11.451,51.306,11.594,54.177.57,3,2.7,7.178,2.417,11.807,2.387l91.462-.588c4.2-.027,8.06.678,11.251-1.367A11.509,11.509,0,0,0,193.6,63c6.124-.039,11.114-4.5,11.15-9.955S199.849,43.2,193.728,43.236Zm0,0" transform="translate(10.803 4.724)" fill="#ffec95"/>
      <path id="Path_76" data-name="Path 76" d="M18.063,68.767C7.792,68.5-.4,60.991-.338,51.749c.062-9.456,8.74-17.2,19.345-17.273a20.767,20.767,0,0,1,9.2,2.033,35.738,35.738,0,0,1,21.324-7.171,32.5,32.5,0,0,1,4.1.237A17.579,17.579,0,0,1,66.19,24.289c7.542-.049,13.882,4.452,15.783,10.619.4-.112.807-.214,1.214-.3a18.712,18.712,0,0,1-.247-3.16c.08-12.18,11.26-22.165,24.923-22.253a26.532,26.532,0,0,1,14.561,4.16C129.035,4.545,140.072-.9,152.274-.98c11.208-.072,21.678,4.569,28.36,12.342a18.792,18.792,0,0,1,4.824-.659c9.36-.06,16.931,6.684,16.876,15.029a14.379,14.379,0,0,1-4.273,9.952,20.916,20.916,0,0,1,5.131,7.947c7.091,1.583,12.32,7.309,12.275,14.14-.053,8.093-7.481,14.725-16.558,14.784a17.687,17.687,0,0,1-8.987-2.364,27.228,27.228,0,0,1-7.985.589c-.79-.022-1.6-.053-2.417-.048l-92.542.6a35.7,35.7,0,0,1-7.628-.469C74.023,81.316,22.548,80.427,18.063,68.767Zm4.07-9.987a5.8,5.8,0,0,1,2.908.746,4.718,4.718,0,0,1,2.351,3.133c1.913,9.4,41.271,9.6,43.656.46a5.152,5.152,0,0,1,3.788-3.573,5.788,5.788,0,0,1,5.292,1.206c1.064.961,2.826,1.054,6.858,1l92.6-.6c.975-.006,1.931.023,2.869.053,2.638.084,4.3.1,5.244-.508a5.838,5.838,0,0,1,7.091.624,5.9,5.9,0,0,0,4.181,1.654c3.153-.02,5.727-2.321,5.745-5.13a5.32,5.32,0,0,0-5.454-5.052,4.915,4.915,0,0,1-.5.025,5.135,5.135,0,0,1-5.291-4.08,12.244,12.244,0,0,0-6.923-9.033,4.606,4.606,0,0,1-2.689-4.557,5,5,0,0,1,3.558-4.131,5.724,5.724,0,0,0,4.168-5.213c.02-3.063-2.757-5.533-6.189-5.511a6.738,6.738,0,0,0-3.6,1.068,5.942,5.942,0,0,1-4.29.8,5.27,5.27,0,0,1-3.5-2.3c-4.411-7-12.758-11.318-21.785-11.26-10.427.067-19.645,5.74-23.485,14.453a5.409,5.409,0,0,1-4.4,3.05,5.566,5.566,0,0,1-5.037-2,14.394,14.394,0,0,0-11.49-5.334c-7.736.05-14.065,5.7-14.11,12.6a11.2,11.2,0,0,0,1.462,5.473,4.373,4.373,0,0,1-.481,4.9,5.709,5.709,0,0,1-5.066,2,13.171,13.171,0,0,0-1.371-.139,11.632,11.632,0,0,0-9.918,5.433,5.576,5.576,0,0,1-4.723,2.573h-.04a5.427,5.427,0,0,1-4.69-2.452,5.029,5.029,0,0,1,.915-6.415A4.954,4.954,0,0,0,71.8,38.93c.018-2.808-2.529-5.076-5.678-5.056a5.811,5.811,0,0,0-5.174,2.992,5.672,5.672,0,0,1-6.172,2.67,24.358,24.358,0,0,0-5.317-.613A23.518,23.518,0,0,0,32.69,45.9a5.837,5.837,0,0,1-7.814.308,8.882,8.882,0,0,0-5.934-2.145c-4.675.03-8.505,3.45-8.532,7.618s3.758,7.539,8.437,7.509a9.366,9.366,0,0,0,2-.262A6.183,6.183,0,0,1,22.133,58.781Zm0,0" transform="translate(0 0)" fill="#4c241d"/>
      <path id="Path_77" data-name="Path 77" d="M21.343,23.826A5.028,5.028,0,0,1,16,19.069c.035-5.288-4.76-9.557-10.69-9.519A5.028,5.028,0,0,1-.031,4.794c.017-2.647,2.437-4.809,5.4-4.828C17.231-.111,26.82,8.428,26.751,19,26.734,21.647,24.311,23.807,21.343,23.826Zm0,0" transform="translate(146.752 19.416)" fill="#fff"/>
    </g>
    <g id="Group_26" data-name="Group 26" transform="translate(981.93 1991.289) rotate(90)">
      <g id="Group_24" data-name="Group 24" transform="translate(0 0)">
        <g id="_002-popcorn-1" data-name="002-popcorn-1" transform="translate(0 0)">
          <path id="Path_11" data-name="Path 11" d="M0,0,28.61,226.868H43.88L22.942,0ZM0,0" transform="translate(5.284 184.642)" fill="#f53e28"/>
          <path id="Path_12" data-name="Path 12" d="M49.164,236.628H33.9a5.151,5.151,0,0,1-5.245-4.313L.036,5.444a4.64,4.64,0,0,1,1.3-3.808A5.486,5.486,0,0,1,5.281,0H28.223a5.133,5.133,0,0,1,5.26,4.464L54.425,231.335a4.659,4.659,0,0,1-1.375,3.713A5.465,5.465,0,0,1,49.164,236.628ZM38.6,226.871h4.819L23.373,9.757H11.215Zm0,0" transform="translate(0 179.762)" fill="#4c241d"/>
          <path id="Path_13" data-name="Path 13" d="M43.88,0H20.939L0,226.868H15.267Zm0,0" transform="translate(162.054 184.642)" fill="#f53e28"/>
          <path id="Path_14" data-name="Path 14" d="M20.549,236.628H5.279a5.47,5.47,0,0,1-3.886-1.58,4.649,4.649,0,0,1-1.375-3.713L20.957,4.464A5.138,5.138,0,0,1,26.221,0H49.162a5.474,5.474,0,0,1,3.943,1.636,4.633,4.633,0,0,1,1.3,3.808L25.792,232.315A5.15,5.15,0,0,1,20.549,236.628Zm-9.521-9.757h4.819L43.228,9.757H31.07Zm0,0" transform="translate(156.772 179.762)" fill="#4c241d"/>
          <path id="Path_15" data-name="Path 15" d="M128.366,0H0L20.939,226.868h112.89L154.767,0Zm0,0" transform="translate(28.226 184.642)" fill="#fff"/>
          <path id="Path_16" data-name="Path 16" d="M139.107,236.628H26.22a5.133,5.133,0,0,1-5.26-4.464L.019,5.293A4.659,4.659,0,0,1,1.393,1.58,5.477,5.477,0,0,1,5.282,0H160.049a5.477,5.477,0,0,1,3.889,1.58,4.659,4.659,0,0,1,1.375,3.713L144.371,232.164A5.138,5.138,0,0,1,139.107,236.628ZM31.07,226.871H134.261L154.3,9.757H11.029Zm0,0" transform="translate(22.944 179.762)" fill="#4c241d"/>
          <g id="Group_25" data-name="Group 25" transform="matrix(-0.242, 0.97, -0.97, -0.242, 255.074, 38.477)">
            <path id="Path_17" data-name="Path 17" d="M83.292,25.316c-7.929.037-13.486,6.873-13.475,4.506.019-3.966-3.581-7.163-8.037-7.142S58,23.849,58.039,15.516C58.081,6.8,50.166-.235,40.362-.189,31.93-.15,24.881,5.123,23.037,12.144a14.115,14.115,0,0,0-9.624-3.6C5.982,8.581-.067,13.967-.1,20.577s5.966,11.94,13.4,11.9a14.87,14.87,0,0,0,3.54-.488,12.772,12.772,0,0,0-2.889,7.933c-.036,7.6,6.854,13.719,15.393,13.679,6.722-.032,12.4-3.9,14.557-9.239,1.065,5.21,6.17,9.142,12.351,9.113,6.026-.028,11.07-3.816,12.35-8.845,2.31,5.133,7.937,8.75,14.557,8.719,8.7-.041,15.79-6.35,15.827-14.093S91.994,25.276,83.292,25.316Zm0,0" transform="translate(5.357 4.76)" fill="#ffec95"/>
            <path id="Path_18" data-name="Path 18" d="M88.492,62.9a22.4,22.4,0,0,1-14.044-4.7,19.246,19.246,0,0,1-12.864,4.824,18.945,18.945,0,0,1-12.886-4.8,22.42,22.42,0,0,1-14.022,4.928c-11.492.054-20.8-8.219-20.753-18.442a16.024,16.024,0,0,1,.317-3.121C5.974,39.863-.159,33.255-.121,25.363-.077,16.126,8.409,8.57,18.792,8.521a20.637,20.637,0,0,1,7.16,1.221C30.073,3.7,37.458-.176,45.741-.215,58.5-.275,68.83,8.908,68.775,20.254l-.033,2.474a13.641,13.641,0,0,1,9.6,5.225,23.256,23.256,0,0,1,10.332-2.664c11.656-.055,21.1,8.338,21.05,18.706S100.147,62.847,88.492,62.9ZM73.983,44.609a5.355,5.355,0,0,1,4.971,2.973,10.278,10.278,0,0,0,9.583,5.743c5.722-.027,10.4-4.19,10.422-9.28s-4.612-9.207-10.333-9.18c-2.993.014-5.785,1.745-7.827,3.009-2,1.231-4.728,2.92-7.951,1.429a5.065,5.065,0,0,1-3.057-4.694,2.525,2.525,0,0,0-2.677-2.381l-1.2.033a7.914,7.914,0,0,1-5.9-1.556c-2.141-1.844-2.1-4-2.039-7.57l.038-2.832c.029-6.065-5.5-10.978-12.317-10.946-5.78.027-10.742,3.562-12.063,8.595a5.15,5.15,0,0,1-3.814,3.56,5.851,5.851,0,0,1-5.306-1.254,8.429,8.429,0,0,0-5.766-2.162c-4.453.021-8.09,3.257-8.108,7.217s3.587,7.163,8.04,7.142a8.955,8.955,0,0,0,2.12-.314,5.719,5.719,0,0,1,5.82,1.849,4.352,4.352,0,0,1-.045,5.509,8.31,8.31,0,0,0-1.888,5.164c-.024,4.944,4.475,8.942,10.033,8.916a10.185,10.185,0,0,0,9.473-6.03,5.52,5.52,0,0,1,5.509-3.2,5.128,5.128,0,0,1,4.847,3.875,6.983,6.983,0,0,0,7.079,5.226,7.234,7.234,0,0,0,7.082-5.076,5.278,5.278,0,0,1,4.828-3.751C73.688,44.613,73.835,44.609,73.983,44.609Zm0,0" transform="translate(0 0)" fill="#4c241d"/>
            <path id="Path_21" data-name="Path 21" d="M6.542,2.887a3.148,3.148,0,0,1-3.29,2.93,3.08,3.08,0,0,1-3.266-2.9A3.151,3.151,0,0,1,3.28-.015,3.077,3.077,0,0,1,6.542,2.887Zm0,0" transform="translate(31.569 27.085)" fill="#fff"/>
          </g>
          <g id="Group_28" data-name="Group 28" transform="translate(193.809 0)">
            <path id="Path_22" data-name="Path 22" d="M28.962,7.343a6.5,6.5,0,0,0-2.435,1.214c-2.112-6.214-9.14-9.849-16-8.132C3.486,2.187-.675,8.887,1.232,15.389A12.1,12.1,0,0,0,5.918,21.8c-.021.006-.045.006-.066.011A7.276,7.276,0,0,0,.277,30.791a8.014,8.014,0,0,0,9.717,5.151c4.221-1.058,5.312-9.877,5.575-8.978a8.009,8.009,0,0,0,9.714,5.151c4.224-1.058,6.72-5.078,5.575-8.978-.74-2.518-.906-3.721,1.468-4.316a5.914,5.914,0,0,0,4.529-7.295A6.5,6.5,0,0,0,28.962,7.343Zm0,0" transform="translate(5.284 4.882)" fill="#ffec95"/>
            <path id="Path_23" data-name="Path 23" d="M13.184,45.961a13.938,13.938,0,0,1-6.544-1.622,12.291,12.291,0,0,1-6.173-7.39,11.3,11.3,0,0,1,1.29-9.26,12.491,12.491,0,0,1,1.55-2,16.222,16.222,0,0,1-1.888-4.14A15.854,15.854,0,0,1,3.228,8.582,18.247,18.247,0,0,1,14.426.6a19.2,19.2,0,0,1,19.9,6.639c5.707-.712,11.349,2.58,12.908,7.892a10.044,10.044,0,0,1-1.145,8.219,11.245,11.245,0,0,1-4.653,4.171c1.369,6.24-2.74,12.5-9.487,14.188a14.19,14.19,0,0,1-9.209-.8,10.145,10.145,0,0,1-6.082,4.632A14.432,14.432,0,0,1,13.184,45.961Zm-.846-14.509a2.544,2.544,0,0,0-1.42,1.094,2.265,2.265,0,0,0-.257,1.851,2.47,2.47,0,0,0,1.236,1.48,2.766,2.766,0,0,0,1.583.313c.414-.508,1.027-1.725,1.837-4.562.329-1.164,1.345-4.71,5.478-4.724h.015a5.345,5.345,0,0,1,5.142,3.671,2.677,2.677,0,0,0,3.239,1.714A2.429,2.429,0,0,0,31.047,29.3c-2.03-6.932,1.7-9.428,5.182-10.3a1.061,1.061,0,0,0,.816-1.312,1.166,1.166,0,0,0-1.417-.748h0a1.215,1.215,0,0,0-.4.232,5.6,5.6,0,0,1-4.88.958A5.1,5.1,0,0,1,26.774,14.9a8,8,0,0,0-9.59-4.886,7.816,7.816,0,0,0-4.8,3.423A6.8,6.8,0,0,0,11.613,19a7.323,7.323,0,0,0,2.822,3.836,4.692,4.692,0,0,1,1.934,4.86,5.074,5.074,0,0,1-3.886,3.73C12.435,31.43,12.386,31.444,12.338,31.452Zm0,0" transform="translate(0 0)" fill="#4c241d"/>
          </g>
          <path id="Path_25" data-name="Path 25" d="M12.871,16.773C5.771,16.773,0,11.438,0,4.88A5.091,5.091,0,0,1,5.278,0,5.092,5.092,0,0,1,10.56,4.88a2.231,2.231,0,0,0,2.311,2.136A2.23,2.23,0,0,0,15.18,4.88,5.094,5.094,0,0,1,20.461,0a5.094,5.094,0,0,1,5.281,4.88C25.743,11.438,19.969,16.773,12.871,16.773Zm0,0" transform="translate(92.622 337.657)" fill="#4c241d"/>
          <path id="Path_26" data-name="Path 26" d="M26.4,19.517a5.091,5.091,0,0,1-5.278-4.88A5.1,5.1,0,0,0,15.841,9.76a5.1,5.1,0,0,0-5.281,4.877,5.091,5.091,0,0,1-5.278,4.88A5.094,5.094,0,0,1,0,14.637C0,6.566,7.106,0,15.841,0S31.683,6.566,31.683,14.637A5.094,5.094,0,0,1,26.4,19.517Zm0,0" transform="translate(124.984 284.836)" fill="#4c241d"/>
          <path id="Path_27" data-name="Path 27" d="M26.4,19.517a5.091,5.091,0,0,1-5.278-4.88A5.1,5.1,0,0,0,15.841,9.76a5.1,5.1,0,0,0-5.281,4.877,5.091,5.091,0,0,1-5.278,4.88A5.094,5.094,0,0,1,0,14.637C0,6.566,7.106,0,15.841,0S31.683,6.566,31.683,14.637A5.094,5.094,0,0,1,26.4,19.517Zm0,0" transform="translate(54.552 284.836)" fill="#4c241d"/>
          <path id="Path_79" data-name="Path 79" d="M12.871,16.773C5.771,16.773,0,11.438,0,4.88A5.091,5.091,0,0,1,5.278,0,5.092,5.092,0,0,1,10.56,4.88a2.231,2.231,0,0,0,2.311,2.136A2.23,2.23,0,0,0,15.18,4.88,5.094,5.094,0,0,1,20.461,0a5.094,5.094,0,0,1,5.281,4.88C25.743,11.438,19.969,16.773,12.871,16.773Zm0,0" transform="matrix(-1, 0, 0, -1, 118.364, 346.218)" fill="#4c241d"/>
          <g id="Ellipse_1" data-name="Ellipse 1" transform="translate(59.331 302.593)" fill="#fff" stroke="#4c241d" stroke-linecap="round" stroke-linejoin="round" stroke-width="11">
            <circle cx="11.177" cy="11.177" r="11.177" stroke="none"/>
            <circle cx="11.177" cy="11.177" r="5.677" fill="none"/>
          </g>
          <g id="Ellipse_2" data-name="Ellipse 2" transform="translate(129.52 304.417)" fill="#fff" stroke="#4c241d" stroke-linecap="round" stroke-linejoin="round" stroke-width="11">
            <circle cx="11.177" cy="11.177" r="11.177" stroke="none"/>
            <circle cx="11.177" cy="11.177" r="5.677" fill="none"/>
          </g>
        </g>
        <path id="Path_9" data-name="Path 9" d="M32.189,10.954A10.806,10.806,0,0,0,21.537,0a10.665,10.665,0,0,0-9.473,5.768,10.385,10.385,0,0,0-1.334-.135A10.84,10.84,0,0,0,0,16.582,10.84,10.84,0,0,0,10.73,27.53a10.439,10.439,0,0,0,1.488-.153A10.573,10.573,0,0,0,26.781,31.5a11.024,11.024,0,0,0,4.038-14.86q-.058-.1-.118-.208A11.009,11.009,0,0,0,32.189,10.954Z" transform="translate(111.549 140.046)" fill="#ffec95" stroke="#4c241d" stroke-width="8"/>
        <path id="Path_36" data-name="Path 36" d="M32.861,10.878a10.966,10.966,0,0,0-20.539-5.17,11.017,11.017,0,0,0-1.361-.138A10.733,10.733,0,0,0,.067,16.265,10.948,10.948,0,0,0,11.051,27.048a11.022,11.022,0,0,0,1.516-.144,11.06,11.06,0,0,0,14.864,4.1,10.538,10.538,0,0,0,4.057-14.56q-.06-.1-.122-.2A10.423,10.423,0,0,0,32.861,10.878Z" transform="translate(212.685 66.058) rotate(-102)" fill="#ffec95" stroke="#4c241d" stroke-width="8"/>
        <path id="Path_37" data-name="Path 37" d="M32.861,10.878a10.966,10.966,0,0,0-20.539-5.17,11.017,11.017,0,0,0-1.361-.138A10.733,10.733,0,0,0,.067,16.265,10.948,10.948,0,0,0,11.051,27.048a11.022,11.022,0,0,0,1.516-.144,11.06,11.06,0,0,0,14.864,4.1,10.538,10.538,0,0,0,4.057-14.56q-.06-.1-.122-.2A10.423,10.423,0,0,0,32.861,10.878Z" transform="translate(219.391 41.881) rotate(-102)" fill="#ffec95" stroke="#4c241d" stroke-width="8"/>
      </g>
    </g>
  </g>
</svg>
