<svg xmlns="http://www.w3.org/2000/svg" width="642.885" height="761.267" viewBox="0 0 642.885 761.267">
  <g id="Group_10" data-name="Group 10" transform="translate(-1090 -318.517)">
    <g id="_002-popcorn-1" data-name="002-popcorn-1" transform="translate(1089.689 402)">
      <path id="Path_11" data-name="Path 11" d="M16.672,108.355,80.667,605.682h34.157L67.988,108.355Zm0,0" transform="translate(11.946 61.404)" fill="#f53e28"/>
      <path id="Path_12" data-name="Path 12" d="M119.811,620.249H85.661c-5.995,0-11.043-4.07-11.733-9.455L9.92,113.461a10.049,10.049,0,0,1,2.906-8.348,12.4,12.4,0,0,1,8.826-3.586H72.969c6.137,0,11.246,4.253,11.766,9.786l46.842,497.333a10.1,10.1,0,0,1-3.075,8.139A12.354,12.354,0,0,1,119.811,620.249ZM96.171,598.86h10.78L62.122,122.916h-27.2Zm0,0" transform="translate(6.958 57.535)" fill="#4c241d"/>
      <path id="Path_13" data-name="Path 13" d="M317.5,108.355H266.187L219.352,605.682H253.5Zm0,0" transform="translate(159.93 61.404)" fill="#f53e28"/>
      <path id="Path_14" data-name="Path 14" d="M258.488,620.249H224.331a12.366,12.366,0,0,1-8.691-3.464,10.077,10.077,0,0,1-3.075-8.139L259.4,111.313c.527-5.532,5.636-9.786,11.773-9.786h51.316a12.371,12.371,0,0,1,8.82,3.586,10.034,10.034,0,0,1,2.906,8.348l-64,497.333C269.524,616.179,264.475,620.249,258.488,620.249Zm-21.3-21.389h10.78l61.244-475.944h-27.2Zm0,0" transform="translate(154.944 57.535)" fill="#4c241d"/>
      <path id="Path_15" data-name="Path 15" d="M333.461,108.355H46.332L93.167,605.682H345.68l46.835-497.327Zm0,0" transform="translate(33.602 61.404)" fill="#fff"/>
      <path id="Path_16" data-name="Path 16" d="M350.659,620.249H98.153c-6.137,0-11.246-4.253-11.766-9.786L39.545,113.131a10.1,10.1,0,0,1,3.075-8.139,12.382,12.382,0,0,1,8.7-3.464H397.5a12.382,12.382,0,0,1,8.7,3.464,10.1,10.1,0,0,1,3.075,8.139L362.432,610.463C361.905,616,356.8,620.249,350.659,620.249ZM109,598.86H339.819l44.828-475.944H64.172Zm0,0" transform="translate(28.616 57.535)" fill="#4c241d"/>
      <path id="Path_17" data-name="Path 17" d="M377.234,406.1c-17.4,0-29.527,15.214-29.527,9.926,0-8.862-7.934-16.04-17.714-16.04s-8.286,2.57-8.286-16.046c0-19.48-17.443-35.275-38.962-35.275-18.5,0-33.92,11.707-37.894,27.374a30.947,30.947,0,0,0-21.16-8.139c-16.308,0-29.527,11.97-29.527,26.738s13.219,26.738,29.527,26.738a31.976,31.976,0,0,0,7.765-1.053,28.6,28.6,0,0,0-6.258,17.693c0,16.97,15.186,30.722,33.927,30.722,14.753,0,27.182-8.58,31.852-20.489,2.392,11.652,13.638,20.489,27.2,20.489,13.226,0,24.256-8.409,27.013-19.633,5.123,11.493,17.511,19.633,32.041,19.633,19.1,0,34.589-14.021,34.589-31.322S396.334,406.1,377.234,406.1Zm0,0" transform="translate(141.54 197.585)" fill="#ffec95"/>
      <path id="Path_18" data-name="Path 18" d="M382.217,483.3a49.024,49.024,0,0,1-30.872-10.643,42.505,42.505,0,0,1-56.513-.22A48.249,48.249,0,0,1,264.108,483.3c-25.222,0-45.741-18.58-45.741-41.419a36.321,36.321,0,0,1,.662-6.971c-18.16-3.947-31.69-18.776-31.69-36.407,0-20.636,18.545-37.429,41.334-37.429a44.788,44.788,0,0,1,15.727,2.8c8.982-13.445,25.148-22.038,43.328-22.038,27.993,0,50.769,20.624,50.769,45.973l-.047,5.526a30.149,30.149,0,0,1,21.12,11.775,49.99,49.99,0,0,1,22.647-5.844c25.58,0,46.4,18.849,46.4,42.013S407.8,483.3,382.217,483.3Zm-32.035-41.022a11.862,11.862,0,0,1,10.942,6.7c3.5,7.858,11.78,12.931,21.093,12.931,12.557,0,22.776-9.253,22.776-20.624s-10.219-20.618-22.776-20.618c-6.569,0-12.679,3.837-17.146,6.64-4.373,2.729-10.347,6.475-17.437,3.109a11.458,11.458,0,0,1-6.758-10.52,5.644,5.644,0,0,0-5.9-5.349l-2.643.061c-3.2.165-8.556.33-12.956-3.537-4.717-4.143-4.656-8.959-4.555-16.934l.054-6.328c0-13.549-12.185-24.584-27.148-24.584-12.685,0-23.539,7.846-26.385,19.076a11.245,11.245,0,0,1-8.333,7.913,12.751,12.751,0,0,1-11.658-2.858,18.48,18.48,0,0,0-12.679-4.89c-9.773,0-17.72,7.191-17.72,16.04s7.948,16.04,17.72,16.04a19.251,19.251,0,0,0,4.65-.679,12.516,12.516,0,0,1,12.794,4.192,9.857,9.857,0,0,1-.041,12.307,18.609,18.609,0,0,0-4.089,11.518c0,11.046,9.915,20.024,22.113,20.024,9.259,0,17.585-5.373,20.728-13.372,1.791-4.559,6.7-7.4,12.057-7.081,5.326.379,9.7,3.947,10.678,8.709,1.406,6.805,7.961,11.75,15.592,11.75,7.367,0,13.882-4.737,15.49-11.267,1.122-4.572,5.4-7.95,10.557-8.329C349.534,442.286,349.858,442.279,350.182,442.279Zm0,0" transform="translate(136.557 193.718)" fill="#4c241d"/>
      <path id="Path_19" data-name="Path 19" d="M441.912,129.112c-.21,0-.406.049-.608.055-1.906-12.1-9.942-22.289-21.235-28.047,9.82-3.207,16.882-11.64,16.882-21.64,0-12.748-11.415-23.084-25.493-23.084a27.108,27.108,0,0,0-14.76,4.327C385.2,42.3,363.414,29.848,338.381,29.848c-28.453,0-52.695,16.083-62.407,38.733-7.7-10.061-20.5-16.677-35.035-16.677-23.546,0-42.632,17.283-42.632,38.6a35.364,35.364,0,0,0,4.5,16.958,38.955,38.955,0,0,0-4.5-.416c-13.99,0-26,7.2-32.143,17.662-.223-.361-.426-.734-.656-1.089a21.12,21.12,0,0,0,8.434-16.573c0-12.179-10.908-22.056-24.357-22.056-9.779,0-18.153,5.245-22.032,12.778a66.429,66.429,0,0,0-14.51-1.75,63.287,63.287,0,0,0-45.632,18.972,32.042,32.042,0,0,0-21.363-7.944c-16.815,0-30.446,12.344-30.446,27.576S29.233,162.2,46.048,162.2a33.311,33.311,0,0,0,7.225-.863c5.278,25.587,29.98,44.981,59.771,44.981,28.98,0,53.134-18.372,59.284-42.931,6.623,6.071,15.808,5.5,25.979,5.5H399.274c9.232,0,17.72,1.628,24.7-2.889a25.408,25.408,0,0,0,17.93,7.234c13.456,0,24.357-9.878,24.357-22.056S455.361,129.112,441.912,129.112Zm0,0" transform="translate(11.164 16.915)" fill="#ffec95"/>
      <path id="Path_20" data-name="Path 20" d="M118.026,220.882c-31.237,0-58.548-18.06-68.57-44.143C26.883,175.986,8.777,159.12,8.777,138.5c0-21.1,18.957-38.268,42.26-38.268A45.424,45.424,0,0,1,71.272,104.9a76.86,76.86,0,0,1,46.754-15.7,70.5,70.5,0,0,1,9,.588,37.832,37.832,0,0,1,27.54-11.616c16.571,0,30.568,10.135,34.833,23.923.885-.245,1.771-.465,2.663-.661a42.523,42.523,0,0,1-.588-7.056c0-27.178,24.425-49.3,54.445-49.3a58.236,58.236,0,0,1,32.055,9.492c14.4-19.553,38.577-31.548,65.387-31.548,24.627,0,47.7,10.508,62.495,27.95a40.489,40.489,0,0,1,10.59-1.4c20.566,0,37.3,15.159,37.3,33.782A31.907,31.907,0,0,1,444.5,105.5a47.577,47.577,0,0,1,11.388,17.809c15.605,3.635,27.175,16.487,27.175,31.732,0,18.06-16.227,32.754-36.171,32.754a38.775,38.775,0,0,1-19.782-5.4c-6.143,1.628-12.28,1.4-17.538,1.2-1.737-.061-3.508-.141-5.312-.141l-203.339.006a77.461,77.461,0,0,1-16.767-1.157C172.6,205.545,147.141,220.882,118.026,220.882Zm-59.771-66.37a12.7,12.7,0,0,1,6.4,1.707,10.7,10.7,0,0,1,5.211,7.026c4.339,21,24.594,36.254,48.16,36.254,23.026,0,42.666-14.235,47.775-34.6a11.2,11.2,0,0,1,8.272-7.919,12.675,12.675,0,0,1,11.645,2.766c2.352,2.16,6.224,2.393,15.085,2.326l203.46-.006c2.142,0,4.244.08,6.306.159,5.8.226,9.448.288,11.516-1.059a12.716,12.716,0,0,1,15.592,1.493,13.013,13.013,0,0,0,9.212,3.751c6.927,0,12.55-5.1,12.55-11.365,0-6.12-5.366-11.12-12.057-11.352a10.617,10.617,0,0,1-1.1.049c-5.853,0-10.854-3.9-11.685-9.18-1.352-8.586-6.948-15.967-15.341-20.257a10.458,10.458,0,0,1-5.974-10.208,10.931,10.931,0,0,1,7.759-9.168c5.434-1.775,9.083-6.426,9.083-11.573,0-6.836-6.137-12.387-13.679-12.387a14.492,14.492,0,0,0-7.9,2.332,12.8,12.8,0,0,1-9.414,1.732,11.77,11.77,0,0,1-7.732-5.177c-9.793-15.691-28.2-25.44-48.032-25.44-22.911,0-43.085,12.527-51.4,31.915a11.7,11.7,0,0,1-9.624,6.744,12.29,12.29,0,0,1-11.1-4.535,31.884,31.884,0,0,0-25.324-12.068c-17,0-30.825,12.521-30.825,27.913a25.529,25.529,0,0,0,3.291,12.234,9.85,9.85,0,0,1-.987,10.936,12.3,12.3,0,0,1-11.1,4.4,28.623,28.623,0,0,0-3.014-.33,25.088,25.088,0,0,0-21.715,11.983,12.025,12.025,0,0,1-10.34,5.673h-.088a12.053,12.053,0,0,1-10.34-5.538c-2.683-4.406-2.257-11,1.919-14.3a10.928,10.928,0,0,0,4.393-8.513c0-6.267-5.63-11.365-12.55-11.365a12.542,12.542,0,0,0-11.327,6.6c-2.392,4.621-8.042,7.081-13.523,5.869a52.976,52.976,0,0,0-11.692-1.444,50.611,50.611,0,0,0-36.752,15.324,12.348,12.348,0,0,1-8.448,3.641,12.672,12.672,0,0,1-8.718-3.066,19.573,19.573,0,0,0-13.071-4.871c-10.273,0-18.64,7.576-18.64,16.879s8.367,16.879,18.646,16.879a20.183,20.183,0,0,0,4.4-.557A13.331,13.331,0,0,1,58.255,154.511Zm0,0" transform="translate(6.182 13.045)" fill="#4c241d"/>
      <path id="Path_21" data-name="Path 21" d="M241.939,387.193c0,3.592-3.217,6.512-7.191,6.512s-7.2-2.919-7.2-6.512,3.224-6.518,7.2-6.518S241.939,383.595,241.939,387.193Zm0,0" transform="translate(165.917 215.726)" fill="#fff"/>
      <path id="Path_22" data-name="Path 22" d="M71.925,22.928a14.656,14.656,0,0,0-5.447,2.662C61.754,11.967,46.034,4,30.679,7.763,14.939,11.625,5.632,26.312,9.9,40.566A26.555,26.555,0,0,0,20.379,54.629c-.047.012-.1.012-.149.024C10.789,56.967,5.207,65.78,7.761,74.329S20.055,87.94,29.5,85.62,41.377,63.968,41.965,65.939C44.52,74.488,54.252,79.549,63.693,77.23S78.724,66.1,76.163,57.548c-1.656-5.52-2.028-8.158,3.285-9.461C87.118,46.2,91.653,39.048,89.578,32.1S79.6,21.043,71.925,22.928Zm0,0" transform="translate(4.988 3.871)" fill="#ffec95"/>
      <path id="Path_23" data-name="Path 23" d="M29.8,100.752A31.686,31.686,0,0,1,15.162,97.2,27.082,27.082,0,0,1,1.355,81,24.358,24.358,0,0,1,4.24,60.7,27.459,27.459,0,0,1,7.707,56.3a35.226,35.226,0,0,1-4.224-9.076A34.16,34.16,0,0,1,7.532,18.813,40.792,40.792,0,0,1,32.578,1.31C49.758-2.894,67.37,3.3,77.1,15.863c12.767-1.561,25.384,5.655,28.872,17.3a21.641,21.641,0,0,1-2.561,18.017A24.988,24.988,0,0,1,93,60.324c3.062,13.678-6.13,27.393-21.221,31.1a32.338,32.338,0,0,1-20.6-1.763c-2.994,4.565-7.292,8.6-13.6,10.153A32.906,32.906,0,0,1,29.8,100.752ZM27.908,68.947a5.67,5.67,0,0,0-3.176,2.4,4.883,4.883,0,0,0-.574,4.057,5.45,5.45,0,0,0,2.764,3.244,6.293,6.293,0,0,0,3.541.685c.926-1.114,2.3-3.782,4.109-10,.737-2.552,3.007-10.324,12.253-10.355h.034c5.332,0,10.111,3.384,11.5,8.048a6.011,6.011,0,0,0,7.245,3.758,5.32,5.32,0,0,0,4.15-6.561c-4.542-15.2,3.8-20.667,11.591-22.582a2.324,2.324,0,0,0,1.825-2.876A2.617,2.617,0,0,0,80,37.124h-.007a2.734,2.734,0,0,0-.906.508,12.726,12.726,0,0,1-10.915,2.1A11.332,11.332,0,0,1,60.2,32.668c-2.866-8.256-12.287-12.962-21.451-10.71a17.472,17.472,0,0,0-10.732,7.5,14.642,14.642,0,0,0-1.73,12.179A16.09,16.09,0,0,0,32.6,50.049,10.191,10.191,0,0,1,36.924,60.7a11.248,11.248,0,0,1-8.691,8.176C28.124,68.9,28.016,68.929,27.908,68.947Zm0,0" transform="translate(0)" fill="#4c241d"/>
      <path id="Path_24" data-name="Path 24" d="M241.4,100.39c-6.522,0-11.807-4.786-11.807-10.691,0-11.8-10.6-21.4-23.627-21.4-6.522,0-11.807-4.786-11.807-10.691s5.285-10.7,11.807-10.7c26.053,0,47.248,19.192,47.248,42.784C253.219,95.6,247.927,100.39,241.4,100.39Zm0,0" transform="translate(141.54 26.586)" fill="#fff"/>
      <path id="Path_25" data-name="Path 25" d="M158.955,327.948c-15.882,0-28.791-11.7-28.791-26.071,0-5.906,5.285-10.7,11.807-10.7s11.814,4.792,11.814,10.7a5.192,5.192,0,0,0,10.334,0c0-5.906,5.292-10.7,11.814-10.7s11.814,4.792,11.814,10.7C187.745,316.253,174.83,327.948,158.955,327.948Zm0,0" transform="translate(94.811 165.009)" fill="#4c241d"/>
      <path id="Path_26" data-name="Path 26" d="M229.324,304.737c-6.522,0-11.807-4.792-11.807-10.7s-5.305-10.691-11.814-10.691-11.814,4.8-11.814,10.691-5.285,10.7-11.807,10.7-11.814-4.792-11.814-10.7c0-17.693,15.9-32.087,35.434-32.087s35.434,14.394,35.434,32.087C241.138,299.945,235.846,304.737,229.324,304.737Zm0,0" transform="translate(124.094 148.447)" fill="#4c241d"/>
      <path id="Path_27" data-name="Path 27" d="M140.578,304.737c-6.522,0-11.807-4.792-11.807-10.7s-5.305-10.691-11.814-10.691-11.814,4.8-11.814,10.691-5.285,10.7-11.807,10.7-11.814-4.792-11.814-10.7c0-17.693,15.9-32.087,35.434-32.087s35.434,14.394,35.434,32.087C152.392,299.945,147.1,304.737,140.578,304.737Zm0,0" transform="translate(59.297 148.447)" fill="#4c241d"/>
      <path id="Path_28" data-name="Path 28" d="M86.239,144.311c-19.538,0-35.434-14.394-35.434-32.087,0-5.906,5.285-10.7,11.807-10.7s11.814,4.792,11.814,10.7,5.3,10.691,11.814,10.691,11.807,4.792,11.807,10.7S92.761,144.311,86.239,144.311Zm0,0" transform="translate(36.868 57.535)" fill="#fff"/>
      <g id="Group_9" data-name="Group 9" transform="translate(507.608 20.611)">
        <path id="Path_29" data-name="Path 29" d="M312.16,76.155a12.455,12.455,0,0,1-8.353-3.133,10,10,0,0,1,0-15.122l45.95-41.609a12.7,12.7,0,0,1,16.707,0,10,10,0,0,1,0,15.122L320.506,73.022A12.4,12.4,0,0,1,312.16,76.155Zm0,0" transform="translate(-288.538 -13.155)" fill="#4c241d"/>
        <path id="Path_30" data-name="Path 30" d="M358.116,76.155a12.443,12.443,0,0,1-8.353-3.133l-45.95-41.609a9.988,9.988,0,0,1,0-15.122,12.688,12.688,0,0,1,16.7,0L366.463,57.9a9.988,9.988,0,0,1,0,15.122A12.408,12.408,0,0,1,358.116,76.155Zm0,0" transform="translate(-288.537 -13.155)" fill="#4c241d"/>
        <path id="Path_31" data-name="Path 31" d="M305.331,321.917a12.426,12.426,0,0,1-8.347-3.133,9.995,9.995,0,0,1,0-15.128l45.95-41.609a12.7,12.7,0,0,1,16.7,0,10,10,0,0,1,0,15.122l-45.95,41.615A12.431,12.431,0,0,1,305.331,321.917Zm0,0" transform="translate(-293.522 126.115)" fill="#4c241d"/>
        <path id="Path_32" data-name="Path 32" d="M351.286,321.917a12.455,12.455,0,0,1-8.353-3.133l-45.95-41.615a10,10,0,0,1,0-15.122,12.7,12.7,0,0,1,16.7,0l45.95,41.609a9.995,9.995,0,0,1,0,15.128A12.426,12.426,0,0,1,351.286,321.917Zm0,0" transform="translate(-293.52 126.115)" fill="#4c241d"/>
        <path id="Path_33" data-name="Path 33" d="M366.3,166.2c-19.755,0-35.833-14.559-35.833-32.454s16.071-32.454,35.833-32.454,35.84,14.559,35.84,32.454S386.059,166.2,366.3,166.2Zm0-43.512c-6.731,0-12.212,4.957-12.212,11.059s5.474,11.059,12.212,11.059,12.219-4.957,12.219-11.059S373.036,122.688,366.3,122.688Zm0,0" transform="translate(-266.549 36.792)" fill="#4c241d"/>
      </g>
      <path id="Path_34" data-name="Path 34" d="M224.339,324.3H188.9c-6.522,0-11.807-4.786-11.807-10.691s5.285-10.7,11.807-10.7h35.434c6.522,0,11.814,4.792,11.814,10.7S230.86,324.3,224.339,324.3Zm0,0" transform="translate(129.079 171.659)" fill="#e66353"/>
      <path id="Path_35" data-name="Path 35" d="M128.771,324.3H93.337c-6.522,0-11.814-4.786-11.814-10.691s5.292-10.7,11.814-10.7h35.434c6.522,0,11.807,4.792,11.807,10.7S135.293,324.3,128.771,324.3Zm0,0" transform="translate(59.297 171.659)" fill="#e66353"/>
    </g>
    <path id="Path_9" data-name="Path 9" d="M464,40.027a23.92,23.92,0,0,0-45.016-11.368,23.686,23.686,0,0,0-2.984-.3,24.011,24.011,0,1,0,3.328,47.664,23.9,23.9,0,1,0,41.609-23.543q-.131-.229-.265-.457A23.766,23.766,0,0,0,464,40.027Z" transform="translate(983 313.986)" fill="#ffec95" stroke="#4c241d" stroke-width="8"/>
    <path id="Path_36" data-name="Path 36" d="M464,40.027a23.92,23.92,0,0,0-45.016-11.368,23.686,23.686,0,0,0-2.984-.3,24.011,24.011,0,1,0,3.328,47.664,23.9,23.9,0,1,0,41.609-23.543q-.131-.229-.265-.457A23.766,23.766,0,0,0,464,40.027Z" transform="translate(1271.06 795.572) rotate(-102)" fill="#ffec95" stroke="#4c241d" stroke-width="8"/>
    <path id="Path_37" data-name="Path 37" d="M464,40.027a23.92,23.92,0,0,0-45.016-11.368,23.686,23.686,0,0,0-2.984-.3,24.011,24.011,0,1,0,3.328,47.664,23.9,23.9,0,1,0,41.609-23.543q-.131-.229-.265-.457A23.766,23.766,0,0,0,464,40.027Z" transform="translate(1683.06 1112.572) rotate(-102)" fill="#ffec95" stroke="#4c241d" stroke-width="8"/>
  </g>
</svg>
