<svg xmlns="http://www.w3.org/2000/svg" width="16.068" height="15.022" viewBox="0 0 16.068 15.022">
  <g id="_003-rating" data-name="003-rating" transform="translate(0)">
    <g id="Group_32" data-name="Group 32" transform="translate(1.088 1.057)">
      <path id="Path_114" data-name="Path 114" d="M17.614,10.4l1.571,3.091a.742.742,0,0,0,.56.4l3.511.495a.717.717,0,0,1,.412,1.232l-2.54,2.407a.71.71,0,0,0-.214.64l.6,3.4a.739.739,0,0,1-1.079.762l-3.141-1.6a.763.763,0,0,0-.692,0l-3.14,1.6a.739.739,0,0,1-1.079-.761l.6-3.4a.71.71,0,0,0-.214-.639l-2.541-2.406a.717.717,0,0,1,.412-1.232l3.511-.5a.742.742,0,0,0,.56-.4L16.281,10.4A.753.753,0,0,1,17.614,10.4Z" transform="translate(-10.003 -10)" fill="#ffbc53"/>
    </g>
    <path id="Path_120" data-name="Path 120" d="M13.673,12.937,13.1,9.713l2.41-2.284A1.734,1.734,0,0,0,15.977,5.6,1.807,1.807,0,0,0,14.5,4.394l-3.332-.469L9.675.992A1.826,1.826,0,0,0,8.033,0h0A1.826,1.826,0,0,0,6.39.992L4.9,3.926,1.569,4.4A1.807,1.807,0,0,0,.091,5.609,1.734,1.734,0,0,0,.554,7.433L2.966,9.716,2.4,12.94a1.746,1.746,0,0,0,.729,1.74,1.866,1.866,0,0,0,1.929.135l2.98-1.523,2.981,1.521a1.865,1.865,0,0,0,1.929-.136A1.746,1.746,0,0,0,13.673,12.937ZM11.455,8.323A1.747,1.747,0,0,0,10.928,9.9l.483,2.729L8.888,11.339a1.878,1.878,0,0,0-1.7,0L4.66,12.629,5.141,9.9a1.748,1.748,0,0,0-.527-1.575L2.572,6.392l2.821-.4a1.828,1.828,0,0,0,1.379-.974L8.033,2.535,9.295,5.018a1.828,1.828,0,0,0,1.379.973l2.821.4Z" transform="translate(0 0)"/>
  </g>
</svg>
