<svg xmlns="http://www.w3.org/2000/svg" width="45.951" height="48.295" viewBox="0 0 45.951 48.295">
  <g id="Group_23" data-name="Group 23" transform="translate(-3456.179 -1616.452)">
    <g id="_002-popcorn-1" data-name="002-popcorn-1" transform="translate(3447.223 1581.98)">
      <path id="Path_48" data-name="Path 48" d="M16.672,108.355l6.224,46.3h3.322l-4.555-46.3Zm0,0" transform="translate(-6.566 -72.888)" fill="#f53e28"/>
      <path id="Path_49" data-name="Path 49" d="M20.537,149.822H17.215a1.1,1.1,0,0,1-1.141-.88l-6.226-46.3a.912.912,0,0,1,.283-.777,1.234,1.234,0,0,1,.858-.334h4.991a1.1,1.1,0,0,1,1.144.911l4.556,46.3a.918.918,0,0,1-.3.758A1.231,1.231,0,0,1,20.537,149.822Zm-2.3-1.991h1.048l-4.36-44.312H12.28Zm0,0" transform="translate(-0.884 -67.056)" fill="#4c241d"/>
      <path id="Path_50" data-name="Path 50" d="M228.9,108.355h-4.991l-4.555,46.3h3.322Zm0,0" transform="translate(-175.139 -72.888)" fill="#f53e28"/>
      <path id="Path_51" data-name="Path 51" d="M216.993,149.822h-3.322a1.232,1.232,0,0,1-.845-.323.916.916,0,0,1-.3-.758l4.555-46.3a1.1,1.1,0,0,1,1.145-.911h4.991a1.232,1.232,0,0,1,.858.334.911.911,0,0,1,.283.777l-6.225,46.3A1.1,1.1,0,0,1,216.993,149.822Zm-2.071-1.991h1.048l5.957-44.312h-2.645Zm0,0" transform="translate(-169.46 -67.056)" fill="#4c241d"/>
      <path id="Path_52" data-name="Path 52" d="M74.259,108.355H46.332l4.555,46.3h24.56L80,108.355Zm0,0" transform="translate(-31.235 -72.888)" fill="#fff"/>
      <path id="Path_53" data-name="Path 53" d="M69.767,149.822H45.208a1.1,1.1,0,0,1-1.144-.911l-4.556-46.3a.918.918,0,0,1,.3-.758,1.233,1.233,0,0,1,.846-.323H74.323a1.233,1.233,0,0,1,.846.323.918.918,0,0,1,.3.758l-4.556,46.3A1.1,1.1,0,0,1,69.767,149.822Zm-23.5-1.991h22.45l4.36-44.312H41.9Zm0,0" transform="translate(-25.555 -67.056)" fill="#4c241d"/>
      <path id="Path_63" data-name="Path 63" d="M176.013,265.937a1.08,1.08,0,0,1-1.148-1,1.161,1.161,0,0,0-2.3,0,1.16,1.16,0,0,1-2.3,0,3.482,3.482,0,0,1,6.893,0A1.081,1.081,0,0,1,176.013,265.937Zm0,0" transform="translate(-134.317 -208.081)" fill="#4c241d"/>
      <path id="Path_64" data-name="Path 64" d="M87.267,265.937a1.08,1.08,0,0,1-1.148-1,1.161,1.161,0,0,0-2.3,0,1.16,1.16,0,0,1-2.3,0,3.482,3.482,0,0,1,6.893,0A1.081,1.081,0,0,1,87.267,265.937Zm0,0" transform="translate(-60.505 -208.081)" fill="#4c241d"/>
      <path id="Path_72" data-name="Path 72" d="M86.119,304.905H82.672a1.006,1.006,0,1,1,0-1.991h3.446a1.006,1.006,0,1,1,0,1.991Zm0,0" transform="translate(-52.505 -239.068)" fill="#4c241d"/>
    </g>
    <path id="Path_73" data-name="Path 73" d="M229.106,381.486a.778.778,0,1,1-.777-.81A.794.794,0,0,1,229.106,381.486Zm0,0" transform="translate(3243.689 1258)" fill="#4c241d"/>
    <path id="Path_74" data-name="Path 74" d="M229.106,381.486a.778.778,0,1,1-.777-.81A.794.794,0,0,1,229.106,381.486Zm0,0" transform="translate(3258.689 1258)" fill="#4c241d"/>
  </g>
</svg>
