<svg xmlns="http://www.w3.org/2000/svg" width="19.508" height="20.404" viewBox="0 0 19.508 20.404">
  <g id="_001-televisions" data-name="001-televisions" transform="translate(-32.809 -26.512)">
    <path id="Path_81" data-name="Path 81" d="M93.207,97.378l.814,1.531a.54.54,0,0,0,.632.26.526.526,0,0,0,.376-.562l-.2-1.716Z" transform="translate(-44.557 -52.276)" fill="#2f4859"/>
    <path id="Path_82" data-name="Path 82" d="M42.079,97.378l-.814,1.531a.541.541,0,0,1-.632.26.526.526,0,0,1-.376-.562l.2-1.716Z" transform="translate(-5.491 -52.276)" fill="#2f4859"/>
    <g id="Group_30" data-name="Group 30" transform="translate(37.425 26.512)">
      <path id="Path_83" data-name="Path 83" d="M65.641,34.781l-.666-.476L67,31.981l.268.191Z" transform="translate(-61.154 -30.574)" fill="#4d5c7d"/>
      <ellipse id="Ellipse_4" data-name="Ellipse 4" cx="0.464" cy="0.456" rx="0.464" ry="0.456" transform="translate(5.621 0.911)" fill="#4d5c7d"/>
      <path id="Path_84" data-name="Path 84" d="M54.258,32.014l.666-.476-2.6-3.1-.268.191Z" transform="translate(-51.62 -27.944)" fill="#4d5c7d"/>
      <ellipse id="Ellipse_5" data-name="Ellipse 5" cx="0.464" cy="0.456" rx="0.464" ry="0.456" fill="#4d5c7d"/>
    </g>
    <ellipse id="Ellipse_6" data-name="Ellipse 6" cx="2.045" cy="2.005" rx="2.045" ry="2.005" transform="translate(38.86 29.259)" fill="#474c5b"/>
    <path id="Path_85" data-name="Path 85" d="M52.228,45.18a2.11,2.11,0,0,0-2.09-2.021c-6.246-.1-8.9-.1-15.149,0A2.11,2.11,0,0,0,32.9,45.18q-.179,5.238,0,10.476a2.11,2.11,0,0,0,2.09,2.021c6.246.1,8.9.1,15.149,0a2.11,2.11,0,0,0,2.09-2.021Q52.407,50.418,52.228,45.18Z" transform="translate(0 -12.31)" fill="#4d5c7d"/>
    <path id="Path_86" data-name="Path 86" d="M51.009,52.281v9.372a.381.381,0,0,1-.385.378H40.637a.383.383,0,0,1-.388-.378V52.281a.385.385,0,0,1,.388-.38h9.987A.383.383,0,0,1,51.009,52.281Z" transform="translate(-5.489 -18.859)" fill="#00abee"/>
    <g id="Group_31" data-name="Group 31" transform="translate(46.893 39.611)">
      <path id="Path_87" data-name="Path 87" d="M87.14,77.437v.12h-.509v.5h-.122v-.618Z" transform="translate(-86.508 -77.437)" fill="#474c5b"/>
      <path id="Path_88" data-name="Path 88" d="M90.593,77.437v.12h-.509v.5h-.122v-.618Z" transform="translate(-89.056 -77.437)" fill="#474c5b"/>
      <path id="Path_89" data-name="Path 89" d="M94.046,77.437v.12h-.509v.5h-.122v-.618Z" transform="translate(-91.603 -77.437)" fill="#474c5b"/>
      <path id="Path_90" data-name="Path 90" d="M97.5,77.437v.12h-.509v.5h-.122v-.618Z" transform="translate(-94.15 -77.437)" fill="#474c5b"/>
      <path id="Path_91" data-name="Path 91" d="M100.951,77.437v.12h-.509v.5h-.122v-.618Z" transform="translate(-96.697 -77.437)" fill="#474c5b"/>
      <path id="Path_92" data-name="Path 92" d="M87.14,80.638v.12h-.509v.5h-.122v-.618Z" transform="translate(-86.508 -79.815)" fill="#474c5b"/>
      <path id="Path_93" data-name="Path 93" d="M90.593,80.638v.12h-.509v.5h-.122v-.618Z" transform="translate(-89.056 -79.815)" fill="#474c5b"/>
      <path id="Path_94" data-name="Path 94" d="M94.046,80.638v.12h-.509v.5h-.122v-.618Z" transform="translate(-91.603 -79.815)" fill="#474c5b"/>
      <path id="Path_95" data-name="Path 95" d="M97.5,80.638v.12h-.509v.5h-.122v-.618Z" transform="translate(-94.15 -79.815)" fill="#474c5b"/>
      <path id="Path_96" data-name="Path 96" d="M100.951,80.638v.12h-.509v.5h-.122v-.618Z" transform="translate(-96.697 -79.815)" fill="#474c5b"/>
      <path id="Path_97" data-name="Path 97" d="M87.14,83.84v.12h-.509v.5h-.122V83.84Z" transform="translate(-86.508 -82.193)" fill="#474c5b"/>
      <path id="Path_98" data-name="Path 98" d="M90.593,83.84v.12h-.509v.5h-.122V83.84Z" transform="translate(-89.056 -82.193)" fill="#474c5b"/>
      <path id="Path_99" data-name="Path 99" d="M94.046,83.84v.12h-.509v.5h-.122V83.84Z" transform="translate(-91.603 -82.193)" fill="#474c5b"/>
      <path id="Path_100" data-name="Path 100" d="M97.5,83.84v.12h-.509v.5h-.122V83.84Z" transform="translate(-94.15 -82.193)" fill="#474c5b"/>
      <path id="Path_101" data-name="Path 101" d="M100.951,83.84v.12h-.509v.5h-.122V83.84Z" transform="translate(-96.697 -82.193)" fill="#474c5b"/>
      <path id="Path_102" data-name="Path 102" d="M87.14,87.041v.12h-.509v.5h-.122v-.618Z" transform="translate(-86.508 -84.571)" fill="#474c5b"/>
      <path id="Path_103" data-name="Path 103" d="M90.593,87.041v.12h-.509v.5h-.122v-.618Z" transform="translate(-89.056 -84.571)" fill="#474c5b"/>
      <path id="Path_104" data-name="Path 104" d="M94.046,87.041v.12h-.509v.5h-.122v-.618Z" transform="translate(-91.603 -84.571)" fill="#474c5b"/>
      <path id="Path_105" data-name="Path 105" d="M97.5,87.041v.12h-.509v.5h-.122v-.618Z" transform="translate(-94.15 -84.571)" fill="#474c5b"/>
      <path id="Path_106" data-name="Path 106" d="M100.951,87.041v.12h-.509v.5h-.122v-.618Z" transform="translate(-96.697 -84.571)" fill="#474c5b"/>
    </g>
    <path id="Path_121" data-name="Path 121" d="M.994.045a.984.984,0,0,1,.968.976.944.944,0,0,1-.951.959A.984.984,0,0,1,.043,1,.944.944,0,0,1,.994.045Z" transform="translate(47.327 34.428) rotate(-58.28)" fill="#d5d6db"/>
    <path id="Path_107" data-name="Path 107" d="M91.81,52.83a.164.164,0,0,0-.228,0L90.186,54.2a.156.156,0,0,0,0,.224.164.164,0,0,0,.228,0l1.395-1.368A.156.156,0,0,0,91.81,52.83Z" transform="translate(-42.294 -19.514)" fill="#e6e9ef"/>
    <path id="Path_122" data-name="Path 122" d="M.99.021A.974.974,0,0,1,1.966.98.954.954,0,0,1,1,1.931.974.974,0,0,1,.022.972.954.954,0,0,1,.99.021Z" transform="translate(47.511 36.607) rotate(-13.3)" fill="#d5d6db"/>
    <path id="Path_108" data-name="Path 108" d="M92.96,64.226a.16.16,0,0,0-.161.158v1.935a.161.161,0,0,0,.323,0V64.384A.16.16,0,0,0,92.96,64.226Z" transform="translate(-44.256 -28.013)" fill="#e6e9ef"/>
    <path id="Path_109" data-name="Path 109" d="M50.214,51.9c.065,2.212-1.576,5-4.392,7.078a12.072,12.072,0,0,1-5.573,2.351V52.281a.385.385,0,0,1,.388-.38Z" transform="translate(-5.489 -18.859)" fill="#16bbef"/>
  </g>
</svg>
